<?xml version="1.0" encoding="UTF-8" standalone="no"?>
<svg
   xmlns:dc="http://purl.org/dc/elements/1.1/"
   xmlns:cc="http://creativecommons.org/ns#"
   xmlns:rdf="http://www.w3.org/1999/02/22-rdf-syntax-ns#"
   xmlns:svg="http://www.w3.org/2000/svg"
   xmlns="http://www.w3.org/2000/svg"
   version="1.1"
   id="Layer_1"
   x="0px"
   y="0px"
   viewBox="0 0 500 150"
   style="enable-background:new 0 0 500 150;"
   xml:space="preserve"><metadata
   id="metadata29"><rdf:RDF><cc:Work
       rdf:about=""><dc:format>image/svg+xml</dc:format><dc:type
         rdf:resource="http://purl.org/dc/dcmitype/StillImage" /><dc:title></dc:title></cc:Work></rdf:RDF></metadata><defs
   id="defs27" />
<style
   type="text/css"
   id="style2">
	.st0{fill:#F8FF13;}
</style>
<g
   id="g22">
	<g
   aria-label="ПЕРЕ"
   id="text33"
   style="font-style:normal;font-weight:normal;font-size:95.2642px;line-height:1.25;font-family:sans-serif;fill:#f8ff13;fill-opacity:1;stroke:none;stroke-width:2.3816"><path
     d="M 169.84173,0.42074832 156.35217,69.868721 H 138.44362 L 149.3283,13.956823 H 122.90737 L 112.02269,69.868721 H 94.114136 L 107.6037,0.42074832 Z"
     style="font-style:italic;font-variant:normal;font-weight:bold;font-stretch:normal;font-family:sans-serif;-inkscape-font-specification:'sans-serif Bold Italic';stroke-width:2.3816"
     id="path837" /><path
     d="m 187.37815,0.42074832 h 48.28332 L 233.01008,13.956823 h -30.37477 l -2.51185,12.931371 h 28.60717 l -2.69791,13.536075 h -28.56065 l -3.07004,15.908377 h 31.3516 l -2.55837,13.536075 h -49.35318 z"
     style="font-style:italic;font-variant:normal;font-weight:bold;font-stretch:normal;font-family:sans-serif;-inkscape-font-specification:'sans-serif Bold Italic';stroke-width:2.3816"
     id="path839" /><path
     d="m 252.45365,0.42074832 h 29.72354 q 10.9312,0 17.07127,5.02369798 6.18659,4.9771827 6.18659,13.8616847 0,5.44234 -2.04669,10.373006 -2.04669,4.884151 -5.86098,8.558893 -4.1399,3.953837 -9.86133,5.76795 -5.72143,1.767597 -14.37336,1.767597 H 261.4777 l -4.65157,24.095144 h -17.90856 z m 15.44322,12.97788668 -3.81429,19.397056 h 9.90785 q 6.32614,0 9.67527,-2.977006 3.34913,-2.977007 3.34913,-8.651925 0,-3.767773 -2.41882,-5.767949 -2.3723,-2.000176 -6.88433,-2.000176 z"
     style="font-style:italic;font-variant:normal;font-weight:bold;font-stretch:normal;font-family:sans-serif;-inkscape-font-specification:'sans-serif Bold Italic';stroke-width:2.3816"
     id="path841" /><path
     d="m 322.27375,0.42074832 h 48.28332 L 367.90567,13.956823 H 337.5309 l -2.51185,12.931371 h 28.60717 l -2.69791,13.536075 h -28.56065 l -3.07004,15.908377 h 31.3516 l -2.55837,13.536075 h -49.35318 z"
     style="font-style:italic;font-variant:normal;font-weight:bold;font-stretch:normal;font-family:sans-serif;-inkscape-font-specification:'sans-serif Bold Italic';stroke-width:2.3816"
     id="path843" /></g><path
   class="st0"
   d="M 94.1,70 99.4,51.4 114.47824,0.3 H 23.9 L 3.9,70 Z m 10.3,-35.8 4.3,-15.1 z"
   id="path4" />
	
	
	
	
	
	
	
	
<path
   class="st0"
   d="m 173.54358,149.8 5.3,-18.6 15.07824,-51.1 h -90.57823 l -20.000002,69.7 z m 10.3,-35.8 4.3,-15.1 z"
   id="path4-7"
   style="fill:#f8ff13" /><g
   aria-label="МЯЧ"
   id="text33-8"
   style="font-style:normal;font-weight:normal;font-size:96.2129px;line-height:1.25;font-family:sans-serif;fill:#f8ff13;fill-opacity:1;stroke:none;stroke-width:2.40533"><path
     d="m 185.20705,79.872537 h 22.22105 l 9.01996,37.254313 23.67739,-37.254313 H 263.2391 L 249.56822,150.01212 H 232.4209 l 10.00652,-51.770812 -24.3351,38.287852 h -9.72464 L 198.69001,98.241308 188.6835,150.01212 h -17.14732 z"
     style="font-style:italic;font-variant:normal;font-weight:bold;font-stretch:normal;font-family:sans-serif;-inkscape-font-specification:'sans-serif Bold Italic';stroke-width:2.40533"
     id="path846" /><path
     d="m 295.04385,105.42909 q 0,1.97311 1.69124,3.75831 1.73822,1.7852 7.42268,1.7852 h 9.01996 l 3.52342,-17.992935 h -9.01996 q -5.68445,0 -8.55017,2.067074 -4.08717,2.959674 -4.08717,10.382351 z m -30.44236,44.58303 23.25458,-29.78466 q -3.19457,-2.0201 -6.99986,-6.43612 -3.8053,-4.463 -3.8053,-9.44277 0,-1.5503 0.32885,-3.24155 2.06708,-10.523282 9.53673,-15.878882 7.51663,-5.355601 21.37543,-5.355601 h 29.03299 l -13.6239,70.139583 h -18.08689 l 5.16768,-26.54311 h -6.15424 l -20.7647,26.54311 z"
     style="font-style:italic;font-variant:normal;font-weight:bold;font-stretch:normal;font-family:sans-serif;-inkscape-font-specification:'sans-serif Bold Italic';stroke-width:2.40533"
     id="path848" /><path
     d="m 383.36428,150.01212 5.21467,-26.77801 h -24.52302 q -8.926,0 -12.68432,-5.49654 -2.39592,-3.52342 -2.39592,-7.98642 0,-4.463 0.75166,-8.36225 l 4.18113,-21.516363 h 18.08689 l -2.48988,12.919212 q -1.40937,7.18778 -1.40937,10.053501 0,2.86571 0.42281,3.85227 1.17448,2.86572 5.5905,2.86572 h 17.10034 l 5.77841,-29.690703 h 18.0869 l -13.6239,70.139583 z"
     style="font-style:italic;font-variant:normal;font-weight:bold;font-stretch:normal;font-family:sans-serif;-inkscape-font-specification:'sans-serif Bold Italic';stroke-width:2.40533"
     id="path850" /></g></g>
</svg>
